<svg xmlns="http://www.w3.org/2000/svg" xmlns:xlink="http://www.w3.org/1999/xlink" width="1024" zoomAndPan="magnify" viewBox="0 0 768 192.749996" height="257" preserveAspectRatio="xMidYMid meet" version="1.0"><defs><g/><clipPath id="73c97e9bef"><path d="M 695 20 L 767.5 20 L 767.5 95.875 L 695 95.875 Z M 695 20 " clip-rule="nonzero"/></clipPath><clipPath id="cbe07947a4"><path d="M 671.167969 48 L 683 48 L 683 59 L 671.167969 59 Z M 671.167969 48 " clip-rule="nonzero"/></clipPath><clipPath id="57db230f3a"><path d="M 427 129 L 759 129 L 759 192.5 L 427 192.5 Z M 427 129 " clip-rule="nonzero"/></clipPath><clipPath id="356a925ad7"><rect x="0" width="332" y="0" height="64"/></clipPath><clipPath id="80421d8ba8"><path d="M 0.496094 3 L 636.421875 3 L 636.421875 103.367188 L 0.496094 103.367188 Z M 0.496094 3 " clip-rule="nonzero"/></clipPath></defs><path fill="#ffffff" d="M 747.300781 7.816406 C 747.800781 8.019531 748.378906 7.777344 748.582031 7.277344 L 748.589844 7.257812 C 748.792969 6.746094 748.550781 6.167969 748.042969 5.957031 C 747.53125 5.753906 746.953125 5.996094 746.742188 6.507812 C 746.53125 7.015625 746.78125 7.59375 747.300781 7.816406 C 747.289062 7.808594 747.289062 7.808594 747.300781 7.816406 Z M 747.367188 7.652344 C 746.945312 7.488281 746.742188 7.015625 746.90625 6.59375 C 747.058594 6.179688 747.523438 5.976562 747.9375 6.132812 L 747.957031 6.140625 C 748.371094 6.304688 748.582031 6.777344 748.40625 7.199219 C 748.253906 7.605469 747.792969 7.816406 747.367188 7.652344 Z M 747.847656 7.066406 C 747.984375 7.132812 748.148438 7.074219 748.214844 6.941406 L 748.226562 6.910156 C 748.273438 6.804688 748.273438 6.679688 748.207031 6.582031 C 748.136719 6.515625 748.050781 6.457031 747.957031 6.429688 L 747.464844 6.238281 L 747.078125 7.238281 L 747.269531 7.316406 L 747.425781 6.902344 L 747.628906 6.980469 L 747.683594 7.480469 L 747.917969 7.566406 Z M 747.511719 6.738281 L 747.609375 6.457031 L 747.859375 6.554688 C 747.945312 6.59375 748.089844 6.652344 748.042969 6.785156 C 747.992188 6.921875 747.90625 6.921875 747.792969 6.863281 Z M 747.511719 6.738281 " fill-opacity="1" fill-rule="nonzero"/><g clip-path="url(#73c97e9bef)"><path fill="#ffffff" d="M 752.570312 20.851562 L 752.53125 20.890625 C 769.148438 37.613281 769.0625 64.632812 752.347656 81.25 C 737.023438 96.480469 712.726562 97.859375 695.78125 84.449219 L 695.734375 84.488281 C 712.976562 100.554688 739.980469 99.601562 756.046875 82.359375 C 772.078125 65.152344 771.171875 38.21875 754.003906 22.132812 C 753.542969 21.699219 753.0625 21.265625 752.570312 20.851562 Z M 752.570312 20.851562 " fill-opacity="1" fill-rule="nonzero"/></g><path fill="#ffffff" d="M 676.921875 69.363281 C 675.570312 70.125 675.242188 71.261719 675.957031 73.023438 C 676.59375 74.613281 677.625 75.328125 678.703125 74.894531 C 679.570312 74.535156 679.714844 73.792969 679.347656 71.878906 L 679.195312 71.136719 C 678.867188 69.988281 678.796875 68.785156 679 67.609375 C 679.175781 66.773438 679.761719 66.089844 680.5625 65.78125 C 682.488281 65.007812 684.308594 66.183594 685.398438 68.902344 C 686.582031 71.820312 685.945312 74.066406 683.652344 75.007812 L 683.074219 73.574219 C 684.65625 72.878906 685.058594 71.386719 684.230469 69.265625 C 683.527344 67.515625 682.421875 66.753906 681.265625 67.214844 C 680.320312 67.589844 680.089844 68.46875 680.445312 70.433594 L 680.582031 71.261719 L 680.695312 71.984375 C 680.917969 72.839844 680.964844 73.726562 680.832031 74.605469 C 680.65625 75.382812 680.089844 76.011719 679.339844 76.28125 C 677.535156 76.984375 675.773438 75.933594 674.792969 73.496094 C 673.730469 70.828125 674.289062 68.871094 676.332031 67.964844 Z M 676.921875 69.363281 " fill-opacity="1" fill-rule="nonzero"/><g clip-path="url(#cbe07947a4)"><path fill="#ffffff" d="M 675.695312 53.96875 L 682.179688 48.507812 L 682.226562 50.53125 L 676.71875 55.066406 L 678.519531 57.023438 L 682.371094 56.9375 L 682.410156 58.527344 L 671.390625 58.757812 L 671.34375 57.1875 L 675.675781 57.089844 L 676.84375 57.089844 L 676.457031 56.707031 L 676.101562 56.308594 L 671.226562 51.042969 L 671.167969 48.949219 Z M 675.695312 53.96875 " fill-opacity="1" fill-rule="nonzero"/></g><path fill="#ffffff" d="M 680.601562 36.929688 L 684.828125 38.382812 L 684.308594 39.894531 L 680.078125 38.382812 L 672.460938 40.695312 L 673.085938 38.863281 L 677.824219 37.574219 L 678.414062 37.402344 C 678.671875 37.324219 678.941406 37.265625 679.210938 37.21875 C 678.914062 36.871094 678.632812 36.515625 678.375 36.136719 L 675.4375 32.167969 L 676.042969 30.464844 Z M 680.601562 36.929688 " fill-opacity="1" fill-rule="nonzero"/><path fill="#ffffff" d="M 688.035156 16.707031 L 685.714844 19.550781 L 692.671875 25.222656 L 691.011719 27.285156 L 684.066406 21.601562 L 681.746094 24.40625 L 680.175781 23.144531 L 686.496094 15.425781 Z M 688.035156 16.707031 " fill-opacity="1" fill-rule="nonzero"/><path fill="#ffffff" d="M 702.871094 6.277344 L 697.3125 9.511719 L 698.507812 11.546875 L 703.605469 8.566406 L 704.578125 10.1875 L 699.460938 13.171875 L 700.839844 15.515625 L 706.511719 12.210938 L 707.542969 13.972656 L 699.597656 18.605469 L 694.046875 9.097656 L 701.859375 4.511719 Z M 702.871094 6.277344 " fill-opacity="1" fill-rule="nonzero"/><path fill="#ffffff" d="M 724.179688 10.542969 L 721.339844 10.726562 L 719.914062 8.367188 L 715.453125 9.070312 L 714.835938 11.777344 L 712.082031 12.480469 L 714.972656 0.457031 L 717.699219 0.015625 Z M 717.929688 4.867188 C 717.457031 4.15625 717.050781 3.40625 716.722656 2.625 C 716.617188 3.472656 716.464844 4.320312 716.253906 5.148438 L 715.789062 7.238281 L 719.027344 6.71875 Z M 717.929688 4.867188 " fill-opacity="1" fill-rule="nonzero"/><path fill="#ffffff" d="M 741.886719 14.089844 L 739.574219 13.183594 L 740.449219 9.917969 C 740.539062 9.53125 740.683594 9.019531 740.863281 8.355469 C 741.039062 7.691406 741.210938 7.132812 741.347656 6.71875 C 741.480469 6.285156 741.625 5.824219 741.761719 5.339844 L 742.039062 4.5625 C 741.386719 5.667969 741.136719 6.074219 740.527344 6.980469 C 740.277344 7.375 740.046875 7.710938 739.855469 7.980469 L 736.734375 12.335938 L 734.71875 11.816406 L 734.09375 6.546875 C 734.042969 6.265625 734.015625 5.898438 733.976562 5.371094 C 733.949219 4.6875 733.910156 4.15625 733.902344 3.808594 C 733.882812 3.492188 733.882812 3.066406 733.882812 2.46875 L 733.601562 3.789062 C 733.292969 5.246094 733.140625 5.878906 732.707031 7.625 L 731.78125 11.160156 L 729.316406 10.785156 L 732.109375 0.00390625 L 735.828125 0.726562 L 736.347656 5.804688 C 736.472656 7.007812 736.5 8.210938 736.445312 9.414062 C 736.75 8.789062 737.097656 8.191406 737.484375 7.605469 C 737.800781 7.105469 738.070312 6.671875 738.339844 6.285156 L 741.230469 2.125 L 744.757812 3.316406 Z M 741.886719 14.089844 " fill-opacity="1" fill-rule="nonzero"/><path fill="#ffffff" d="M 720.867188 35.28125 C 719.527344 36.445312 716.867188 38.96875 714.304688 41.4375 L 711.417969 44.210938 C 709.074219 43.789062 706.695312 43.574219 704.316406 43.574219 C 698.933594 43.574219 694.046875 45.050781 691.824219 47.332031 C 691.023438 48.054688 690.570312 49.085938 690.578125 50.164062 C 690.628906 52.738281 693.59375 54.054688 694.5 54.402344 C 698.796875 56.234375 703.75 55.589844 707.4375 52.726562 C 710 50.789062 712.4375 48.679688 714.710938 46.40625 C 716.40625 46.785156 718.332031 47.304688 720.414062 47.910156 L 722.332031 48.460938 C 719.855469 50.886719 717.292969 53.429688 714.933594 55.519531 L 714.757812 55.675781 C 711.484375 58.566406 709.132812 60.644531 705.722656 61.398438 C 704.171875 61.839844 702.515625 61.722656 701.042969 61.089844 C 700.972656 61.097656 700.90625 61.195312 700.90625 61.195312 C 702.824219 62.949219 705.414062 63.777344 707.996094 63.457031 C 711.070312 63.199219 714.613281 61.28125 718.265625 57.898438 L 723.128906 53.082031 L 726.519531 49.683594 C 726.519531 49.691406 733.457031 51.714844 733.457031 51.714844 C 733.503906 51.726562 733.554688 51.734375 733.59375 51.753906 C 733.503906 51.753906 729.265625 55.925781 729.265625 55.925781 L 725.597656 59.585938 C 723.128906 62.167969 720.453125 64.546875 717.601562 66.703125 C 713.921875 69.296875 710.828125 70.65625 708.074219 70.816406 C 706.273438 70.992188 704.472656 70.636719 702.863281 69.804688 C 702.785156 69.796875 702.699219 69.894531 702.699219 69.894531 C 704.816406 72.070312 707.738281 73.292969 710.78125 73.273438 C 715.230469 73.160156 719.171875 71.019531 725.25 65.394531 C 728.042969 62.804688 730.835938 59.972656 733.292969 57.429688 L 737.839844 52.8125 C 740.683594 53.46875 743.589844 53.757812 746.5 53.691406 C 750.816406 53.613281 754.449219 51.542969 754.496094 49.183594 C 754.390625 47.785156 753.542969 46.542969 752.28125 45.945312 C 750.691406 44.953125 748.859375 44.421875 746.980469 44.433594 C 743.246094 44.625 739.699219 46.128906 736.953125 48.671875 L 734.660156 50.683594 C 734.691406 50.664062 733.824219 50.453125 733.824219 50.453125 L 727.484375 48.691406 C 729.355469 46.9375 730.941406 45.425781 732.386719 44.171875 C 735.019531 41.714844 738.351562 40.136719 741.925781 39.675781 C 743.554688 39.566406 746.433594 39.710938 747.597656 40.550781 C 747.648438 40.53125 747.722656 40.414062 747.722656 40.414062 C 745.539062 38.394531 742.636719 37.3125 739.660156 37.410156 C 737.464844 37.410156 733.957031 38.105469 729.632812 41.4375 C 727.378906 43.324219 725.25 45.339844 723.246094 47.488281 C 723.246094 47.457031 720.046875 46.496094 720.046875 46.496094 L 719.265625 46.253906 L 715.886719 45.230469 C 715.964844 45.230469 717.832031 43.421875 717.832031 43.421875 C 720.085938 41.207031 722.246094 39.085938 723.890625 37.691406 C 729.929688 32.582031 733.792969 31.910156 736.445312 31.878906 C 738.863281 31.746094 741.269531 32.371094 743.3125 33.671875 C 743.359375 33.671875 743.445312 33.566406 743.445312 33.566406 C 740.828125 30.800781 737.148438 29.308594 733.339844 29.460938 C 729.605469 29.394531 725.171875 31.464844 720.867188 35.28125 Z M 696.9375 53.488281 C 695.011719 53.351562 694.046875 52.554688 694.046875 51.042969 C 694.046875 50.839844 694.183594 46.011719 705.195312 45.464844 C 706.800781 45.367188 708.410156 45.414062 710.011719 45.597656 C 709.914062 45.617188 708.757812 46.675781 708.757812 46.675781 L 708.082031 47.3125 C 705.40625 49.730469 700.925781 53.738281 696.9375 53.488281 Z M 741.625 49.578125 C 744.824219 47.4375 747.453125 46.292969 749.09375 46.351562 C 750.066406 46.386719 751.230469 46.6875 751.230469 47.890625 C 751.230469 49.09375 750.054688 50.15625 747.761719 50.972656 C 744.988281 51.746094 742.089844 51.917969 739.246094 51.484375 C 740.007812 50.808594 740.796875 50.164062 741.625 49.578125 Z M 741.625 49.578125 " fill-opacity="1" fill-rule="nonzero"/><g clip-path="url(#57db230f3a)"><g transform="matrix(1, 0, 0, 1, 427, 129)"><g clip-path="url(#356a925ad7)"><g fill="#ffffff" fill-opacity="1"><g transform="translate(0.608146, 50.200572)"><g><path d="M 37.421875 -38.15625 L 22 0.265625 L 17.15625 0.265625 L 1.953125 -37.421875 L 7.3125 -38.515625 L 19.625 -6.953125 L 31.734375 -38.15625 Z M 37.421875 -38.15625 "/></g></g></g><g fill="#ffffff" fill-opacity="1"><g transform="translate(54.443103, 50.200572)"><g><path d="M 10.625 0 L 5.375 0 L 5.375 -38.15625 L 10.625 -38.15625 Z M 10.625 0 "/></g></g></g><g fill="#ffffff" fill-opacity="1"><g transform="translate(84.966863, 50.200572)"><g><path d="M 32 -0.796875 L 26.46875 0.375 L 14.421875 -16.046875 L 10.3125 -16.046875 L 10.3125 0 L 5.046875 0 L 5.046875 -38.15625 L 15.734375 -38.15625 C 19.835938 -38.15625 23.054688 -37.207031 25.390625 -35.3125 C 27.722656 -33.414062 28.890625 -30.734375 28.890625 -27.265625 C 28.890625 -24.492188 28.109375 -22.21875 26.546875 -20.4375 C 24.984375 -18.664062 22.851562 -17.429688 20.15625 -16.734375 Z M 23.625 -27 C 23.625 -29.0625 22.941406 -30.65625 21.578125 -31.78125 C 20.210938 -32.90625 18.195312 -33.46875 15.53125 -33.46875 L 10.3125 -33.46875 L 10.3125 -20.46875 L 14.953125 -20.46875 C 17.648438 -20.46875 19.769531 -21.03125 21.3125 -22.15625 C 22.851562 -23.28125 23.625 -24.894531 23.625 -27 Z M 23.625 -27 "/></g></g></g><g fill="#ffffff" fill-opacity="1"><g transform="translate(131.592544, 50.200572)"><g><path d="M 33 -33.3125 L 20.046875 -33.3125 L 20.046875 0 L 14.734375 0 L 14.734375 -33.3125 L 2.109375 -33.3125 L 2.109375 -38.15625 L 32.265625 -38.15625 Z M 33 -33.3125 "/></g></g></g><g fill="#ffffff" fill-opacity="1"><g transform="translate(180.849453, 50.200572)"><g><path d="M 35.359375 -14.6875 C 35.359375 -9.875 33.984375 -6.097656 31.234375 -3.359375 C 28.484375 -0.628906 24.703125 0.734375 19.890625 0.734375 C 15.117188 0.734375 11.375 -0.625 8.65625 -3.34375 C 5.9375 -6.0625 4.578125 -9.753906 4.578125 -14.421875 L 4.578125 -38.15625 L 9.890625 -38.15625 L 9.890625 -15.109375 C 9.890625 -11.671875 10.722656 -8.976562 12.390625 -7.03125 C 14.054688 -5.082031 16.554688 -4.109375 19.890625 -4.109375 C 23.253906 -4.109375 25.796875 -5.046875 27.515625 -6.921875 C 29.234375 -8.796875 30.09375 -11.472656 30.09375 -14.953125 L 30.09375 -38.15625 L 35.359375 -38.15625 Z M 35.359375 -14.6875 "/></g></g></g><g fill="#ffffff" fill-opacity="1"><g transform="translate(234.579044, 50.200572)"><g><path d="M 1.953125 0 L 17.46875 -38.3125 L 22.734375 -38.3125 L 38.046875 -0.734375 L 32.84375 0.375 L 28.203125 -11.359375 L 11.84375 -11.359375 L 7.421875 0 Z M 20 -32.09375 L 13.625 -16.046875 L 26.359375 -16.046875 Z M 20 -32.09375 "/></g></g></g><g fill="#ffffff" fill-opacity="1"><g transform="translate(289.045452, 50.200572)"><g><path d="M 25.421875 0 L 5.046875 0 L 5.046875 -38.15625 L 10.3125 -38.15625 L 10.3125 -4.953125 L 24.6875 -4.953125 Z M 25.421875 0 "/></g></g></g></g></g></g><g clip-path="url(#80421d8ba8)"><path fill="#ffffff" d="M 494.378906 168.324219 C 494.378906 171.714844 495.226562 174.425781 496.972656 176.515625 C 498.722656 178.609375 501.429688 179.628906 505.09375 179.628906 C 508.761719 179.628906 511.46875 178.664062 513.273438 176.742188 C 515.074219 174.820312 515.976562 172.054688 515.976562 168.550781 L 515.976562 144.867188 L 521.785156 144.867188 L 521.785156 168.777344 C 521.785156 171.207031 521.390625 173.414062 520.65625 175.390625 L 520.066406 176.699219 C 519.363281 178.058594 518.484375 179.230469 517.386719 180.246094 C 515.921875 181.605469 514.171875 182.621094 512.144531 183.355469 C 510.113281 184.089844 507.746094 184.429688 505.152344 184.429688 C 502.558594 184.429688 500.242188 184.089844 498.15625 183.355469 C 496.128906 182.621094 494.378906 181.605469 492.96875 180.246094 C 491.5625 178.890625 490.488281 177.253906 489.699219 175.390625 C 488.964844 173.46875 488.574219 171.371094 488.574219 169 L 488.574219 144.8125 L 494.378906 144.8125 Z M 558.101562 144.472656 C 560.1875 144.472656 562.046875 144.699219 563.625 145.09375 C 565.203125 145.492188 566.613281 146.058594 567.851562 146.679688 L 566.949219 151.988281 C 565.765625 151.140625 564.414062 150.464844 562.890625 149.957031 C 561.367188 149.390625 559.734375 149.164062 557.984375 149.164062 C 555.503906 149.164062 553.699219 149.675781 552.570312 150.691406 C 551.445312 151.707031 550.882812 152.949219 550.882812 154.363281 C 550.882812 155.097656 550.992188 155.777344 551.21875 156.34375 C 551.441406 156.910156 551.898438 157.472656 552.515625 157.984375 C 553.136719 158.492188 553.984375 159.054688 554.996094 159.5625 C 556.066406 160.125 557.363281 160.695312 559 161.371094 C 561.085938 162.21875 562.835938 163.070312 564.246094 163.859375 C 565.652344 164.652344 566.839844 165.496094 567.683594 166.398438 C 568.53125 167.304688 569.207031 168.324219 569.542969 169.394531 C 569.9375 170.527344 570.109375 171.769531 570.109375 173.238281 L 570.164062 173.183594 C 570.164062 174.875 569.828125 176.402344 569.148438 177.703125 C 568.480469 179.058594 567.570312 180.191406 566.386719 181.152344 C 565.203125 182.113281 563.792969 182.847656 562.105469 183.355469 C 560.414062 183.863281 558.605469 184.09375 556.632812 184.09375 C 554.261719 184.09375 552.0625 183.867188 550.089844 183.414062 C 548.058594 182.964844 546.253906 182.339844 544.675781 181.605469 L 545.523438 176.179688 C 546.988281 177.027344 548.683594 177.820312 550.601562 178.496094 C 552.515625 179.175781 554.605469 179.511719 556.746094 179.511719 C 558.886719 179.511719 560.804688 179.007812 562.214844 177.992188 C 563.625 176.972656 564.355469 175.5 564.355469 173.582031 C 564.355469 172.675781 564.246094 171.882812 563.960938 171.261719 C 563.738281 170.585938 563.285156 170.015625 562.664062 169.453125 C 562.046875 168.886719 561.195312 168.320312 560.183594 167.8125 C 559.109375 167.25 557.8125 166.683594 556.179688 166.007812 C 554.152344 165.160156 552.460938 164.367188 551.050781 163.632812 C 549.644531 162.898438 548.511719 162.046875 547.613281 161.199219 C 546.710938 160.351562 546.089844 159.390625 545.695312 158.375 C 545.300781 157.300781 545.128906 156.117188 545.128906 154.703125 C 545.128906 153.121094 545.410156 151.707031 546.03125 150.464844 C 546.652344 149.222656 547.550781 148.144531 548.679688 147.242188 C 549.808594 146.335938 551.21875 145.65625 552.796875 145.207031 C 554.375 144.695312 556.128906 144.472656 558.101562 144.472656 Z M 740.675781 144.472656 C 742.761719 144.472656 744.625 144.699219 746.203125 145.09375 C 747.78125 145.492188 749.191406 146.058594 750.429688 146.679688 L 749.53125 151.988281 C 748.34375 151.140625 746.992188 150.464844 745.46875 149.957031 C 743.945312 149.390625 742.3125 149.164062 740.5625 149.164062 C 738.082031 149.164062 736.277344 149.675781 735.152344 150.691406 C 734.023438 151.707031 733.460938 152.949219 733.460938 154.363281 C 733.460938 155.097656 733.570312 155.777344 733.796875 156.34375 C 734.023438 156.910156 734.472656 157.472656 735.09375 157.984375 C 735.714844 158.492188 736.558594 159.054688 737.574219 159.5625 C 738.648438 160.125 739.945312 160.695312 741.578125 161.371094 C 743.664062 162.21875 745.414062 163.070312 746.824219 163.859375 C 748.234375 164.652344 749.417969 165.496094 750.261719 166.398438 C 751.109375 167.304688 751.785156 168.324219 752.125 169.394531 C 752.519531 170.527344 752.6875 171.769531 752.6875 173.238281 L 752.742188 173.183594 C 752.742188 174.878906 752.40625 176.402344 751.726562 177.703125 C 751.050781 179.058594 750.148438 180.191406 748.964844 181.152344 C 747.78125 182.113281 746.371094 182.847656 744.679688 183.355469 C 742.988281 183.863281 741.183594 184.09375 739.210938 184.09375 C 736.84375 184.09375 734.644531 183.867188 732.667969 183.414062 C 730.644531 182.964844 728.835938 182.339844 727.261719 181.605469 L 728.101562 176.179688 C 729.570312 177.027344 731.261719 177.820312 733.175781 178.496094 C 735.09375 179.175781 737.179688 179.511719 739.324219 179.511719 C 741.464844 179.511719 743.382812 179.007812 744.792969 177.992188 C 746.203125 176.972656 746.933594 175.5 746.933594 173.582031 C 746.933594 172.675781 746.824219 171.882812 746.539062 171.261719 C 746.316406 170.582031 745.863281 170.015625 745.242188 169.453125 C 744.625 168.886719 743.777344 168.320312 742.769531 167.8125 C 741.695312 167.246094 740.394531 166.6875 738.757812 166.007812 C 736.730469 165.160156 735.039062 164.367188 733.628906 163.632812 C 732.21875 162.84375 731.089844 162.046875 730.1875 161.199219 C 729.285156 160.351562 728.667969 159.390625 728.273438 158.375 C 727.878906 157.300781 727.707031 156.117188 727.707031 154.703125 C 727.707031 153.121094 727.988281 151.707031 728.609375 150.464844 C 729.230469 149.222656 730.132812 148.144531 731.261719 147.242188 C 732.386719 146.339844 733.796875 145.65625 735.375 145.207031 C 736.957031 144.695312 738.703125 144.472656 740.675781 144.472656 Z M 786.6875 144.472656 C 788.773438 144.472656 790.636719 144.699219 792.214844 145.09375 C 793.792969 145.492188 795.203125 146.058594 796.441406 146.679688 L 795.539062 151.988281 C 794.355469 151.140625 793.003906 150.464844 791.480469 149.957031 C 789.957031 149.390625 788.324219 149.164062 786.574219 149.164062 C 784.09375 149.164062 782.289062 149.675781 781.160156 150.691406 C 780.035156 151.707031 779.46875 152.949219 779.46875 154.363281 C 779.46875 155.097656 779.582031 155.777344 779.808594 156.34375 C 780.035156 156.910156 780.484375 157.472656 781.105469 157.984375 C 781.726562 158.492188 782.570312 159.054688 783.585938 159.5625 C 784.65625 160.125 785.953125 160.695312 787.589844 161.371094 C 789.675781 162.21875 791.425781 163.070312 792.832031 163.859375 C 794.242188 164.652344 795.425781 165.496094 796.273438 166.398438 C 797.121094 167.304688 797.796875 168.324219 798.132812 169.394531 C 798.527344 170.527344 798.699219 171.769531 798.699219 173.238281 L 798.753906 173.183594 C 798.753906 174.875 798.417969 176.402344 797.746094 177.703125 C 797.070312 179.058594 796.160156 180.191406 794.976562 181.152344 C 793.792969 182.113281 792.382812 182.847656 790.695312 183.355469 C 789.003906 183.863281 787.195312 184.09375 785.222656 184.09375 C 782.855469 184.09375 780.65625 183.867188 778.679688 183.414062 C 776.652344 182.964844 774.847656 182.339844 773.269531 181.605469 L 774.113281 176.179688 C 775.578125 177.027344 777.277344 177.820312 779.1875 178.496094 C 781.105469 179.175781 783.191406 179.511719 785.335938 179.511719 C 787.476562 179.511719 789.394531 179.007812 790.804688 177.992188 C 792.214844 176.972656 792.945312 175.5 792.945312 173.582031 C 792.945312 172.675781 792.832031 171.882812 792.550781 171.261719 C 792.328125 170.585938 791.875 170.015625 791.253906 169.453125 C 790.636719 168.886719 789.789062 168.320312 788.773438 167.8125 C 787.703125 167.246094 786.40625 166.683594 784.769531 166.007812 C 782.742188 165.160156 781.050781 164.371094 779.640625 163.632812 C 778.230469 162.84375 777.101562 162.046875 776.199219 161.199219 C 775.296875 160.351562 774.675781 159.390625 774.28125 158.375 C 773.886719 157.300781 773.71875 156.117188 773.71875 154.703125 C 773.71875 153.121094 774 151.707031 774.621094 150.464844 C 775.242188 149.222656 776.144531 148.144531 777.269531 147.242188 C 778.398438 146.335938 779.808594 145.65625 781.386719 145.207031 C 782.964844 144.699219 784.714844 144.472656 786.6875 144.472656 Z M 706.226562 149.617188 L 689.027344 149.617188 L 689.027344 160.917969 L 702.390625 160.917969 L 703.234375 165.78125 L 688.96875 165.78125 L 688.96875 178.890625 L 706.789062 178.890625 L 706.789062 183.753906 L 683.164062 183.753906 L 683.21875 183.695312 L 683.21875 144.757812 L 706.226562 144.757812 Z M 450.796875 144.757812 C 455.476562 144.757812 458.96875 145.660156 461.226562 147.523438 C 463.480469 149.386719 464.613281 151.820312 464.613281 154.816406 C 464.613281 156.792969 464.046875 158.488281 462.976562 159.789062 C 461.90625 161.085938 460.378906 162.164062 458.460938 162.898438 C 460.828125 163.523438 462.804688 164.59375 464.269531 166.117188 C 465.734375 167.644531 466.472656 169.679688 466.472656 172.277344 C 466.472656 176.175781 465.0625 179.0625 462.300781 180.925781 C 459.535156 182.792969 455.644531 183.695312 450.679688 183.695312 L 440.476562 183.695312 L 440.476562 144.757812 Z M 599.316406 183.695312 L 593.507812 183.695312 L 593.507812 144.757812 L 599.316406 144.757812 Z M 652.65625 173.917969 L 652.65625 144.757812 L 658.070312 144.757812 L 658.070312 183.695312 L 653.671875 183.695312 L 630.214844 153.402344 L 630.214844 183.695312 L 624.804688 183.695312 L 624.804688 144.757812 L 629.996094 144.757812 Z M 446.171875 179.230469 L 451.132812 179.230469 C 454.234375 179.230469 456.605469 178.667969 458.296875 177.539062 C 459.988281 176.40625 460.773438 174.710938 460.773438 172.449219 L 460.773438 172.394531 C 460.773438 170.132812 459.929688 168.4375 458.296875 167.25 C 456.605469 166.0625 454.179688 165.5 450.96875 165.5 L 446.171875 165.5 Z M 446.171875 161.144531 L 450.230469 161.144531 C 453.046875 161.144531 455.25 160.636719 456.714844 159.5625 C 458.179688 158.488281 458.914062 157.015625 458.914062 155.097656 L 458.914062 155.039062 C 458.914062 153.234375 458.292969 151.820312 456.996094 150.800781 C 455.699219 149.785156 453.613281 149.277344 450.679688 149.277344 L 446.171875 149.277344 Z M 122.457031 101.800781 L -0.238281 101.800781 L 61.109375 75.804688 Z M 127.417969 83.777344 C 129.617188 83.777344 131.421875 85.582031 131.421875 87.84375 C 131.421875 90.105469 129.617188 91.910156 127.417969 91.910156 C 125.21875 91.910156 123.359375 90.101562 123.359375 87.84375 C 123.359375 85.582031 125.164062 83.777344 127.417969 83.777344 Z M 117.945312 91.289062 L 61.109375 63.878906 L 4.269531 91.289062 L 61.109375 3.574219 Z M 197.902344 13.011719 C 226.261719 13.011719 243.179688 27.652344 243.179688 52.121094 C 243.179688 76.59375 226.261719 91.289062 197.902344 91.289062 L 170.328125 91.289062 L 170.328125 13.011719 Z M 339.886719 26.632812 L 302.386719 26.632812 L 302.386719 43.816406 L 335.539062 43.816406 L 335.539062 57.375 L 302.386719 57.375 L 302.386719 77.726562 L 341.125 77.726562 L 341.125 91.289062 L 284.964844 91.289062 L 284.964844 13.066406 L 339.886719 13.066406 Z M 406.816406 77.726562 L 440.476562 77.726562 L 440.476562 91.289062 L 389.332031 91.289062 L 389.332031 13.066406 L 406.816406 13.066406 Z M 534.644531 26.632812 L 508.367188 26.632812 L 508.367188 91.289062 L 490.828125 91.289062 L 490.828125 26.632812 L 464.550781 26.632812 L 464.550781 13.066406 L 534.644531 13.066406 Z M 635.910156 91.289062 L 617.699219 91.289062 L 610.03125 71.675781 L 578.285156 71.675781 L 570.671875 91.289062 L 553.585938 91.289062 L 586.234375 12.675781 L 603.828125 12.675781 Z M 127.417969 84.339844 C 125.5 84.339844 123.980469 85.867188 123.980469 87.789062 C 123.984375 89.707031 125.503906 91.230469 127.417969 91.234375 C 129.335938 91.234375 130.859375 89.707031 130.859375 87.789062 C 130.859375 85.867188 129.335938 84.339844 127.417969 84.339844 Z M 127.757812 85.414062 C 128.828125 85.414062 129.222656 85.863281 129.222656 86.710938 C 129.222656 87.558594 128.660156 87.957031 128.039062 88.070312 L 129.449219 90.101562 L 128.773438 90.101562 L 127.363281 88.070312 L 126.519531 88.070312 L 126.519531 90.101562 L 125.953125 90.101562 L 125.953125 85.414062 Z M 126.519531 87.5625 L 127.253906 87.5625 C 127.871094 87.5625 128.601562 87.558594 128.601562 86.765625 C 128.601562 86.148438 128.039062 85.976562 127.589844 85.976562 L 126.519531 85.976562 Z M 187.753906 77.726562 L 197.902344 77.726562 C 216.28125 77.726562 225.476562 68.625 225.476562 52.179688 C 225.476562 35.734375 216.28125 26.632812 197.902344 26.632812 L 187.753906 26.632812 Z M 583.300781 58.625 L 605.125 58.625 L 594.242188 30.816406 Z M 583.300781 58.625 " fill-opacity="1" fill-rule="nonzero"/></g></svg>