<svg xmlns="http://www.w3.org/2000/svg" xmlns:xlink="http://www.w3.org/1999/xlink" width="1024" zoomAndPan="magnify" viewBox="0 0 768 192.749996" height="257" preserveAspectRatio="xMidYMid meet" version="1.0"><defs><g/><clipPath id="dbb47d6411"><path d="M 0.496094 0 L 767.5 0 L 767.5 192.5 L 0.496094 192.5 Z M 0.496094 0 " clip-rule="nonzero"/></clipPath><clipPath id="66f7e00f12"><path d="M 695 20 L 767.5 20 L 767.5 95.875 L 695 95.875 Z M 695 20 " clip-rule="nonzero"/></clipPath><clipPath id="735992daf9"><path d="M 671.167969 48 L 683 48 L 683 59 L 671.167969 59 Z M 671.167969 48 " clip-rule="nonzero"/></clipPath><clipPath id="1878b2f87e"><path d="M 429 129 L 758 129 L 758 192.5 L 429 192.5 Z M 429 129 " clip-rule="nonzero"/></clipPath><clipPath id="f0cb3e25cf"><rect x="0" width="329" y="0" height="64"/></clipPath><clipPath id="8d47b0210e"><path d="M 61 3.796875 L 124 3.796875 L 124 101.917969 L 61 101.917969 Z M 61 3.796875 " clip-rule="nonzero"/></clipPath><clipPath id="4cebf02471"><path d="M 5 3.796875 L 62 3.796875 L 62 92 L 5 92 Z M 5 3.796875 " clip-rule="nonzero"/></clipPath><clipPath id="2b9797ba8d"><path d="M 0.496094 75 L 62 75 L 62 101.917969 L 0.496094 101.917969 Z M 0.496094 75 " clip-rule="nonzero"/></clipPath><clipPath id="55f6143fda"><path d="M 555 12 L 637.921875 12 L 637.921875 92 L 555 92 Z M 555 12 " clip-rule="nonzero"/></clipPath></defs><path fill="#ffffff" d="M 747.300781 7.816406 C 747.800781 8.019531 748.378906 7.777344 748.582031 7.277344 L 748.589844 7.257812 C 748.792969 6.746094 748.550781 6.167969 748.042969 5.957031 C 747.53125 5.753906 746.953125 5.996094 746.742188 6.507812 C 746.53125 7.015625 746.78125 7.59375 747.300781 7.816406 C 747.289062 7.808594 747.289062 7.808594 747.300781 7.816406 Z M 747.367188 7.652344 C 746.945312 7.488281 746.742188 7.015625 746.90625 6.59375 C 747.058594 6.179688 747.523438 5.976562 747.9375 6.132812 L 747.957031 6.140625 C 748.371094 6.304688 748.582031 6.777344 748.40625 7.199219 C 748.253906 7.605469 747.792969 7.816406 747.367188 7.652344 Z M 747.847656 7.066406 C 747.984375 7.132812 748.148438 7.074219 748.214844 6.941406 L 748.226562 6.910156 C 748.273438 6.804688 748.273438 6.679688 748.207031 6.582031 C 748.136719 6.515625 748.050781 6.457031 747.957031 6.429688 L 747.464844 6.238281 L 747.078125 7.238281 L 747.269531 7.316406 L 747.425781 6.902344 L 747.628906 6.980469 L 747.683594 7.480469 L 747.917969 7.566406 Z M 747.511719 6.738281 L 747.609375 6.457031 L 747.859375 6.554688 C 747.945312 6.59375 748.089844 6.652344 748.042969 6.785156 C 747.992188 6.921875 747.90625 6.921875 747.792969 6.863281 Z M 747.511719 6.738281 " fill-opacity="1" fill-rule="nonzero"/><g clip-path="url(#66f7e00f12)"><path fill="#ffffff" d="M 752.570312 20.851562 L 752.53125 20.890625 C 769.148438 37.613281 769.0625 64.632812 752.347656 81.25 C 737.023438 96.480469 712.726562 97.859375 695.78125 84.449219 L 695.734375 84.488281 C 712.976562 100.554688 739.980469 99.601562 756.046875 82.359375 C 772.078125 65.152344 771.171875 38.21875 754.003906 22.132812 C 753.542969 21.699219 753.0625 21.265625 752.570312 20.851562 Z M 752.570312 20.851562 " fill-opacity="1" fill-rule="nonzero"/></g><path fill="#ffffff" d="M 676.921875 69.363281 C 675.570312 70.125 675.242188 71.261719 675.957031 73.023438 C 676.59375 74.613281 677.625 75.328125 678.703125 74.894531 C 679.570312 74.535156 679.714844 73.792969 679.347656 71.878906 L 679.195312 71.136719 C 678.867188 69.988281 678.796875 68.785156 679 67.609375 C 679.175781 66.773438 679.761719 66.089844 680.5625 65.78125 C 682.488281 65.007812 684.308594 66.183594 685.398438 68.902344 C 686.582031 71.820312 685.945312 74.066406 683.652344 75.007812 L 683.074219 73.574219 C 684.65625 72.878906 685.058594 71.386719 684.230469 69.265625 C 683.527344 67.515625 682.421875 66.753906 681.265625 67.214844 C 680.320312 67.589844 680.089844 68.46875 680.445312 70.433594 L 680.582031 71.261719 L 680.695312 71.984375 C 680.917969 72.839844 680.964844 73.726562 680.832031 74.605469 C 680.65625 75.382812 680.089844 76.011719 679.339844 76.28125 C 677.535156 76.984375 675.773438 75.933594 674.792969 73.496094 C 673.730469 70.828125 674.289062 68.871094 676.332031 67.964844 Z M 676.921875 69.363281 " fill-opacity="1" fill-rule="nonzero"/><g clip-path="url(#735992daf9)"><path fill="#ffffff" d="M 675.695312 53.96875 L 682.179688 48.507812 L 682.226562 50.53125 L 676.71875 55.066406 L 678.519531 57.023438 L 682.371094 56.9375 L 682.410156 58.527344 L 671.390625 58.757812 L 671.34375 57.1875 L 675.675781 57.089844 L 676.84375 57.089844 L 676.457031 56.707031 L 676.101562 56.308594 L 671.226562 51.042969 L 671.167969 48.949219 Z M 675.695312 53.96875 " fill-opacity="1" fill-rule="nonzero"/></g><path fill="#ffffff" d="M 680.601562 36.929688 L 684.828125 38.382812 L 684.308594 39.894531 L 680.078125 38.382812 L 672.460938 40.695312 L 673.085938 38.863281 L 677.824219 37.574219 L 678.414062 37.402344 C 678.671875 37.324219 678.941406 37.265625 679.210938 37.21875 C 678.914062 36.871094 678.632812 36.515625 678.375 36.136719 L 675.4375 32.167969 L 676.042969 30.464844 Z M 680.601562 36.929688 " fill-opacity="1" fill-rule="nonzero"/><path fill="#ffffff" d="M 688.035156 16.707031 L 685.714844 19.550781 L 692.671875 25.222656 L 691.011719 27.285156 L 684.066406 21.601562 L 681.746094 24.40625 L 680.175781 23.144531 L 686.496094 15.425781 Z M 688.035156 16.707031 " fill-opacity="1" fill-rule="nonzero"/><path fill="#ffffff" d="M 702.871094 6.277344 L 697.3125 9.511719 L 698.507812 11.546875 L 703.605469 8.566406 L 704.578125 10.1875 L 699.460938 13.171875 L 700.839844 15.515625 L 706.511719 12.210938 L 707.542969 13.972656 L 699.597656 18.605469 L 694.046875 9.097656 L 701.859375 4.511719 Z M 702.871094 6.277344 " fill-opacity="1" fill-rule="nonzero"/><path fill="#ffffff" d="M 724.179688 10.542969 L 721.339844 10.726562 L 719.914062 8.367188 L 715.453125 9.070312 L 714.835938 11.777344 L 712.082031 12.480469 L 714.972656 0.457031 L 717.699219 0.015625 Z M 717.929688 4.867188 C 717.457031 4.15625 717.050781 3.40625 716.722656 2.625 C 716.617188 3.472656 716.464844 4.320312 716.253906 5.148438 L 715.789062 7.238281 L 719.027344 6.71875 Z M 717.929688 4.867188 " fill-opacity="1" fill-rule="nonzero"/><path fill="#ffffff" d="M 741.886719 14.089844 L 739.574219 13.183594 L 740.449219 9.917969 C 740.539062 9.53125 740.683594 9.019531 740.863281 8.355469 C 741.039062 7.691406 741.210938 7.132812 741.347656 6.71875 C 741.480469 6.285156 741.625 5.824219 741.761719 5.339844 L 742.039062 4.5625 C 741.386719 5.667969 741.136719 6.074219 740.527344 6.980469 C 740.277344 7.375 740.046875 7.710938 739.855469 7.980469 L 736.734375 12.335938 L 734.71875 11.816406 L 734.09375 6.546875 C 734.042969 6.265625 734.015625 5.898438 733.976562 5.371094 C 733.949219 4.6875 733.910156 4.15625 733.902344 3.808594 C 733.882812 3.492188 733.882812 3.066406 733.882812 2.46875 L 733.601562 3.789062 C 733.292969 5.246094 733.140625 5.878906 732.707031 7.625 L 731.78125 11.160156 L 729.316406 10.785156 L 732.109375 0.00390625 L 735.828125 0.726562 L 736.347656 5.804688 C 736.472656 7.007812 736.5 8.210938 736.445312 9.414062 C 736.75 8.789062 737.097656 8.191406 737.484375 7.605469 C 737.800781 7.105469 738.070312 6.671875 738.339844 6.285156 L 741.230469 2.125 L 744.757812 3.316406 Z M 741.886719 14.089844 " fill-opacity="1" fill-rule="nonzero"/><path fill="#ffffff" d="M 720.867188 35.28125 C 719.527344 36.445312 716.867188 38.96875 714.304688 41.4375 L 711.417969 44.210938 C 709.074219 43.789062 706.695312 43.574219 704.316406 43.574219 C 698.933594 43.574219 694.046875 45.050781 691.824219 47.332031 C 691.023438 48.054688 690.570312 49.085938 690.578125 50.164062 C 690.628906 52.738281 693.59375 54.054688 694.5 54.402344 C 698.796875 56.234375 703.75 55.589844 707.4375 52.726562 C 710 50.789062 712.4375 48.679688 714.710938 46.40625 C 716.40625 46.785156 718.332031 47.304688 720.414062 47.910156 L 722.332031 48.460938 C 719.855469 50.886719 717.292969 53.429688 714.933594 55.519531 L 714.757812 55.675781 C 711.484375 58.566406 709.132812 60.644531 705.722656 61.398438 C 704.171875 61.839844 702.515625 61.722656 701.042969 61.089844 C 700.972656 61.097656 700.90625 61.195312 700.90625 61.195312 C 702.824219 62.949219 705.414062 63.777344 707.996094 63.457031 C 711.070312 63.199219 714.613281 61.28125 718.265625 57.898438 L 723.128906 53.082031 L 726.519531 49.683594 C 726.519531 49.691406 733.457031 51.714844 733.457031 51.714844 C 733.503906 51.726562 733.554688 51.734375 733.59375 51.753906 C 733.503906 51.753906 729.265625 55.925781 729.265625 55.925781 L 725.597656 59.585938 C 723.128906 62.167969 720.453125 64.546875 717.601562 66.703125 C 713.921875 69.296875 710.828125 70.65625 708.074219 70.816406 C 706.273438 70.992188 704.472656 70.636719 702.863281 69.804688 C 702.785156 69.796875 702.699219 69.894531 702.699219 69.894531 C 704.816406 72.070312 707.738281 73.292969 710.78125 73.273438 C 715.230469 73.160156 719.171875 71.019531 725.25 65.394531 C 728.042969 62.804688 730.835938 59.972656 733.292969 57.429688 L 737.839844 52.8125 C 740.683594 53.46875 743.589844 53.757812 746.5 53.691406 C 750.816406 53.613281 754.449219 51.542969 754.496094 49.183594 C 754.390625 47.785156 753.542969 46.542969 752.28125 45.945312 C 750.691406 44.953125 748.859375 44.421875 746.980469 44.433594 C 743.246094 44.625 739.699219 46.128906 736.953125 48.671875 L 734.660156 50.683594 C 734.691406 50.664062 733.824219 50.453125 733.824219 50.453125 L 727.484375 48.691406 C 729.355469 46.9375 730.941406 45.425781 732.386719 44.171875 C 735.019531 41.714844 738.351562 40.136719 741.925781 39.675781 C 743.554688 39.566406 746.433594 39.710938 747.597656 40.550781 C 747.648438 40.53125 747.722656 40.414062 747.722656 40.414062 C 745.539062 38.394531 742.636719 37.3125 739.660156 37.410156 C 737.464844 37.410156 733.957031 38.105469 729.632812 41.4375 C 727.378906 43.324219 725.25 45.339844 723.246094 47.488281 C 723.246094 47.457031 720.046875 46.496094 720.046875 46.496094 L 719.265625 46.253906 L 715.886719 45.230469 C 715.964844 45.230469 717.832031 43.421875 717.832031 43.421875 C 720.085938 41.207031 722.246094 39.085938 723.890625 37.691406 C 729.929688 32.582031 733.792969 31.910156 736.445312 31.878906 C 738.863281 31.746094 741.269531 32.371094 743.3125 33.671875 C 743.359375 33.671875 743.445312 33.566406 743.445312 33.566406 C 740.828125 30.800781 737.148438 29.308594 733.339844 29.460938 C 729.605469 29.394531 725.171875 31.464844 720.867188 35.28125 Z M 696.9375 53.488281 C 695.011719 53.351562 694.046875 52.554688 694.046875 51.042969 C 694.046875 50.839844 694.183594 46.011719 705.195312 45.464844 C 706.800781 45.367188 708.410156 45.414062 710.011719 45.597656 C 709.914062 45.617188 708.757812 46.675781 708.757812 46.675781 L 708.082031 47.3125 C 705.40625 49.730469 700.925781 53.738281 696.9375 53.488281 Z M 741.625 49.578125 C 744.824219 47.4375 747.453125 46.292969 749.09375 46.351562 C 750.066406 46.386719 751.230469 46.6875 751.230469 47.890625 C 751.230469 49.09375 750.054688 50.15625 747.761719 50.972656 C 744.988281 51.746094 742.089844 51.917969 739.246094 51.484375 C 740.007812 50.808594 740.796875 50.164062 741.625 49.578125 Z M 741.625 49.578125 " fill-opacity="1" fill-rule="nonzero"/><g clip-path="url(#1878b2f87e)"><g transform="matrix(1, 0, 0, 1, 429, 129)"><g clip-path="url(#f0cb3e25cf)"><g fill="#ffffff" fill-opacity="1"><g transform="translate(0.619177, 50.027861)"><g><path d="M 37.078125 -37.8125 L 21.796875 0.265625 L 17 0.265625 L 1.9375 -37.078125 L 7.25 -38.171875 L 19.453125 -6.890625 L 31.453125 -37.8125 Z M 37.078125 -37.8125 "/></g></g></g><g fill="#ffffff" fill-opacity="1"><g transform="translate(53.969512, 50.027861)"><g><path d="M 10.53125 0 L 5.3125 0 L 5.3125 -37.8125 L 10.53125 -37.8125 Z M 10.53125 0 "/></g></g></g><g fill="#ffffff" fill-opacity="1"><g transform="translate(84.218497, 50.027861)"><g><path d="M 31.71875 -0.78125 L 26.234375 0.359375 L 14.296875 -15.90625 L 10.21875 -15.90625 L 10.21875 0 L 5 0 L 5 -37.8125 L 15.59375 -37.8125 C 19.664062 -37.8125 22.859375 -36.875 25.171875 -35 C 27.484375 -33.125 28.640625 -30.460938 28.640625 -27.015625 C 28.640625 -24.265625 27.863281 -22.007812 26.3125 -20.25 C 24.757812 -18.5 22.644531 -17.273438 19.96875 -16.578125 Z M 23.421875 -26.75 C 23.421875 -28.800781 22.738281 -30.382812 21.375 -31.5 C 20.019531 -32.613281 18.023438 -33.171875 15.390625 -33.171875 L 10.21875 -33.171875 L 10.21875 -20.28125 L 14.8125 -20.28125 C 17.488281 -20.28125 19.59375 -20.835938 21.125 -21.953125 C 22.65625 -23.066406 23.421875 -24.664062 23.421875 -26.75 Z M 23.421875 -26.75 "/></g></g></g><g fill="#ffffff" fill-opacity="1"><g transform="translate(130.424454, 50.027861)"><g><path d="M 32.703125 -33.015625 L 19.875 -33.015625 L 19.875 0 L 14.609375 0 L 14.609375 -33.015625 L 2.09375 -33.015625 L 2.09375 -37.8125 L 31.96875 -37.8125 Z M 32.703125 -33.015625 "/></g></g></g><g fill="#ffffff" fill-opacity="1"><g transform="translate(179.237953, 50.027861)"><g><path d="M 35.046875 -14.546875 C 35.046875 -9.785156 33.679688 -6.046875 30.953125 -3.328125 C 28.222656 -0.617188 24.476562 0.734375 19.71875 0.734375 C 14.988281 0.734375 11.273438 -0.613281 8.578125 -3.3125 C 5.878906 -6.007812 4.53125 -9.671875 4.53125 -14.296875 L 4.53125 -37.8125 L 9.8125 -37.8125 L 9.8125 -14.96875 C 9.8125 -11.5625 10.632812 -8.890625 12.28125 -6.953125 C 13.9375 -5.023438 16.414062 -4.0625 19.71875 -4.0625 C 23.050781 -4.0625 25.566406 -4.992188 27.265625 -6.859375 C 28.972656 -8.722656 29.828125 -11.375 29.828125 -14.8125 L 29.828125 -37.8125 L 35.046875 -37.8125 Z M 35.046875 -14.546875 "/></g></g></g><g fill="#ffffff" fill-opacity="1"><g transform="translate(232.483871, 50.027861)"><g><path d="M 1.9375 0 L 17.3125 -37.96875 L 22.53125 -37.96875 L 37.703125 -0.734375 L 32.546875 0.359375 L 27.953125 -11.265625 L 11.734375 -11.265625 L 7.359375 0 Z M 19.8125 -31.8125 L 13.515625 -15.90625 L 26.125 -15.90625 Z M 19.8125 -31.8125 "/></g></g></g><g fill="#ffffff" fill-opacity="1"><g transform="translate(286.459972, 50.027861)"><g><path d="M 25.1875 0 L 5 0 L 5 -37.8125 L 10.21875 -37.8125 L 10.21875 -4.90625 L 24.46875 -4.90625 Z M 25.1875 0 "/></g></g></g></g></g></g><g clip-path="url(#8d47b0210e)"><path fill="#ffffff" d="M 118.84375 91.46875 L 61.945312 64.070312 L 61.945312 3.796875 Z M 123.367188 101.917969 L 61.945312 75.984375 L 61.945312 101.917969 Z M 123.367188 101.917969 " fill-opacity="1" fill-rule="nonzero"/></g><g clip-path="url(#4cebf02471)"><path fill="#ffffff" d="M 5.046875 91.46875 L 61.945312 3.796875 L 61.945312 64.070312 L 5.046875 91.46875 " fill-opacity="1" fill-rule="nonzero"/></g><g clip-path="url(#2b9797ba8d)"><path fill="#ffffff" d="M 0.523438 101.917969 L 61.945312 101.917969 L 61.945312 75.984375 L 0.523438 101.917969 " fill-opacity="1" fill-rule="nonzero"/></g><path fill="#ffffff" d="M 128.335938 83.949219 C 130.566406 83.949219 132.414062 85.734375 132.414062 87.964844 C 132.414062 90.195312 130.632812 92.042969 128.402344 92.042969 C 126.171875 92.042969 124.324219 90.257812 124.324219 88.027344 C 124.324219 85.734375 126.109375 83.949219 128.335938 83.949219 Z M 128.335938 91.40625 C 130.25 91.40625 131.777344 89.875 131.777344 87.964844 C 131.777344 86.054688 130.25 84.523438 128.335938 84.523438 C 126.425781 84.523438 124.898438 86.054688 124.898438 87.964844 C 124.898438 89.875 126.425781 91.40625 128.335938 91.40625 Z M 127.445312 90.324219 L 126.871094 90.324219 L 126.871094 85.671875 L 128.65625 85.671875 C 129.738281 85.671875 130.121094 86.117188 130.121094 86.945312 C 130.1875 87.644531 129.613281 88.21875 128.976562 88.285156 L 130.375 90.324219 L 129.738281 90.324219 L 128.335938 88.285156 L 127.507812 88.285156 Z M 127.445312 87.710938 L 128.210938 87.710938 C 128.847656 87.710938 129.546875 87.644531 129.546875 86.882812 C 129.546875 86.308594 128.976562 86.117188 128.527344 86.117188 L 127.507812 86.117188 L 127.507812 87.710938 Z M 127.445312 87.710938 " fill-opacity="1" fill-rule="nonzero"/><path fill="#ffffff" d="M 171.347656 91.46875 L 198.933594 91.46875 C 227.351562 91.46875 244.238281 76.75 244.238281 52.347656 C 244.238281 27.945312 227.351562 13.289062 198.933594 13.289062 L 171.347656 13.289062 Z M 188.804688 26.859375 L 198.933594 26.859375 C 217.347656 26.859375 226.589844 35.972656 226.589844 52.347656 C 226.589844 68.722656 217.347656 77.832031 198.933594 77.832031 L 188.804688 77.832031 Z M 188.804688 26.859375 " fill-opacity="1" fill-rule="nonzero"/><path fill="#ffffff" d="M 303.621094 57.570312 L 336.816406 57.570312 L 336.816406 44 L 303.621094 44 L 303.621094 26.859375 L 341.148438 26.859375 L 341.148438 13.289062 L 286.097656 13.289062 L 286.097656 91.46875 L 342.359375 91.46875 L 342.359375 77.898438 L 303.621094 77.898438 Z M 303.621094 57.570312 " fill-opacity="1" fill-rule="nonzero"/><path fill="#ffffff" d="M 441.882812 77.898438 L 408.179688 77.898438 L 408.179688 13.289062 L 390.65625 13.289062 L 390.65625 91.46875 L 441.882812 91.46875 Z M 441.882812 77.898438 " fill-opacity="1" fill-rule="nonzero"/><path fill="#ffffff" d="M 536.183594 13.289062 L 466.03125 13.289062 L 466.03125 26.859375 L 492.285156 26.859375 L 492.285156 91.46875 L 509.871094 91.46875 L 509.871094 26.859375 L 536.183594 26.859375 Z M 536.183594 13.289062 " fill-opacity="1" fill-rule="nonzero"/><g clip-path="url(#55f6143fda)"><path fill="#ffffff" d="M 637.683594 91.46875 L 619.398438 91.46875 L 611.75 71.910156 L 579.957031 71.910156 L 572.3125 91.46875 L 555.234375 91.46875 L 587.921875 12.972656 L 605.570312 12.972656 Z M 606.78125 58.78125 L 595.886719 31.003906 L 584.925781 58.78125 Z M 606.78125 58.78125 " fill-opacity="1" fill-rule="nonzero"/></g></svg>