<svg xmlns="http://www.w3.org/2000/svg" xmlns:xlink="http://www.w3.org/1999/xlink" width="1024" zoomAndPan="magnify" viewBox="0 0 768 192.749996" height="257" preserveAspectRatio="xMidYMid meet" version="1.0"><defs><g/><clipPath id="7a96049947"><path d="M 695 20 L 767.5 20 L 767.5 95.875 L 695 95.875 Z M 695 20 " clip-rule="nonzero"/></clipPath><clipPath id="3c5c4aa768"><path d="M 671.167969 48 L 683 48 L 683 59 L 671.167969 59 Z M 671.167969 48 " clip-rule="nonzero"/></clipPath><clipPath id="49491166d0"><path d="M 429 129 L 758 129 L 758 192.5 L 429 192.5 Z M 429 129 " clip-rule="nonzero"/></clipPath><clipPath id="c09591c8d3"><rect x="0" width="329" y="0" height="64"/></clipPath><clipPath id="49716b31bd"><path d="M 0.496094 3 L 637.921875 3 L 637.921875 103.367188 L 0.496094 103.367188 Z M 0.496094 3 " clip-rule="nonzero"/></clipPath></defs><path fill="#ffffff" d="M 747.300781 7.816406 C 747.800781 8.019531 748.378906 7.777344 748.582031 7.277344 L 748.589844 7.257812 C 748.792969 6.746094 748.550781 6.167969 748.042969 5.957031 C 747.53125 5.753906 746.953125 5.996094 746.742188 6.507812 C 746.53125 7.015625 746.78125 7.59375 747.300781 7.816406 C 747.289062 7.808594 747.289062 7.808594 747.300781 7.816406 Z M 747.367188 7.652344 C 746.945312 7.488281 746.742188 7.015625 746.90625 6.59375 C 747.058594 6.179688 747.523438 5.976562 747.9375 6.132812 L 747.957031 6.140625 C 748.371094 6.304688 748.582031 6.777344 748.40625 7.199219 C 748.253906 7.605469 747.792969 7.816406 747.367188 7.652344 Z M 747.847656 7.066406 C 747.984375 7.132812 748.148438 7.074219 748.214844 6.941406 L 748.226562 6.910156 C 748.273438 6.804688 748.273438 6.679688 748.207031 6.582031 C 748.136719 6.515625 748.050781 6.457031 747.957031 6.429688 L 747.464844 6.238281 L 747.078125 7.238281 L 747.269531 7.316406 L 747.425781 6.902344 L 747.628906 6.980469 L 747.683594 7.480469 L 747.917969 7.566406 Z M 747.511719 6.738281 L 747.609375 6.457031 L 747.859375 6.554688 C 747.945312 6.59375 748.089844 6.652344 748.042969 6.785156 C 747.992188 6.921875 747.90625 6.921875 747.792969 6.863281 Z M 747.511719 6.738281 " fill-opacity="1" fill-rule="nonzero"/><g clip-path="url(#7a96049947)"><path fill="#ffffff" d="M 752.570312 20.851562 L 752.53125 20.890625 C 769.148438 37.613281 769.0625 64.632812 752.347656 81.25 C 737.023438 96.480469 712.726562 97.859375 695.78125 84.449219 L 695.734375 84.488281 C 712.976562 100.554688 739.980469 99.601562 756.046875 82.359375 C 772.078125 65.152344 771.171875 38.21875 754.003906 22.132812 C 753.542969 21.699219 753.0625 21.265625 752.570312 20.851562 Z M 752.570312 20.851562 " fill-opacity="1" fill-rule="nonzero"/></g><path fill="#ffffff" d="M 676.921875 69.363281 C 675.570312 70.125 675.242188 71.261719 675.957031 73.023438 C 676.59375 74.613281 677.625 75.328125 678.703125 74.894531 C 679.570312 74.535156 679.714844 73.792969 679.347656 71.878906 L 679.195312 71.136719 C 678.867188 69.988281 678.796875 68.785156 679 67.609375 C 679.175781 66.773438 679.761719 66.089844 680.5625 65.78125 C 682.488281 65.007812 684.308594 66.183594 685.398438 68.902344 C 686.582031 71.820312 685.945312 74.066406 683.652344 75.007812 L 683.074219 73.574219 C 684.65625 72.878906 685.058594 71.386719 684.230469 69.265625 C 683.527344 67.515625 682.421875 66.753906 681.265625 67.214844 C 680.320312 67.589844 680.089844 68.46875 680.445312 70.433594 L 680.582031 71.261719 L 680.695312 71.984375 C 680.917969 72.839844 680.964844 73.726562 680.832031 74.605469 C 680.65625 75.382812 680.089844 76.011719 679.339844 76.28125 C 677.535156 76.984375 675.773438 75.933594 674.792969 73.496094 C 673.730469 70.828125 674.289062 68.871094 676.332031 67.964844 Z M 676.921875 69.363281 " fill-opacity="1" fill-rule="nonzero"/><g clip-path="url(#3c5c4aa768)"><path fill="#ffffff" d="M 675.695312 53.96875 L 682.179688 48.507812 L 682.226562 50.53125 L 676.71875 55.066406 L 678.519531 57.023438 L 682.371094 56.9375 L 682.410156 58.527344 L 671.390625 58.757812 L 671.34375 57.1875 L 675.675781 57.089844 L 676.84375 57.089844 L 676.457031 56.707031 L 676.101562 56.308594 L 671.226562 51.042969 L 671.167969 48.949219 Z M 675.695312 53.96875 " fill-opacity="1" fill-rule="nonzero"/></g><path fill="#ffffff" d="M 680.601562 36.929688 L 684.828125 38.382812 L 684.308594 39.894531 L 680.078125 38.382812 L 672.460938 40.695312 L 673.085938 38.863281 L 677.824219 37.574219 L 678.414062 37.402344 C 678.671875 37.324219 678.941406 37.265625 679.210938 37.21875 C 678.914062 36.871094 678.632812 36.515625 678.375 36.136719 L 675.4375 32.167969 L 676.042969 30.464844 Z M 680.601562 36.929688 " fill-opacity="1" fill-rule="nonzero"/><path fill="#ffffff" d="M 688.035156 16.707031 L 685.714844 19.550781 L 692.671875 25.222656 L 691.011719 27.285156 L 684.066406 21.601562 L 681.746094 24.40625 L 680.175781 23.144531 L 686.496094 15.425781 Z M 688.035156 16.707031 " fill-opacity="1" fill-rule="nonzero"/><path fill="#ffffff" d="M 702.871094 6.277344 L 697.3125 9.511719 L 698.507812 11.546875 L 703.605469 8.566406 L 704.578125 10.1875 L 699.460938 13.171875 L 700.839844 15.515625 L 706.511719 12.210938 L 707.542969 13.972656 L 699.597656 18.605469 L 694.046875 9.097656 L 701.859375 4.511719 Z M 702.871094 6.277344 " fill-opacity="1" fill-rule="nonzero"/><path fill="#ffffff" d="M 724.179688 10.542969 L 721.339844 10.726562 L 719.914062 8.367188 L 715.453125 9.070312 L 714.835938 11.777344 L 712.082031 12.480469 L 714.972656 0.457031 L 717.699219 0.015625 Z M 717.929688 4.867188 C 717.457031 4.15625 717.050781 3.40625 716.722656 2.625 C 716.617188 3.472656 716.464844 4.320312 716.253906 5.148438 L 715.789062 7.238281 L 719.027344 6.71875 Z M 717.929688 4.867188 " fill-opacity="1" fill-rule="nonzero"/><path fill="#ffffff" d="M 741.886719 14.089844 L 739.574219 13.183594 L 740.449219 9.917969 C 740.539062 9.53125 740.683594 9.019531 740.863281 8.355469 C 741.039062 7.691406 741.210938 7.132812 741.347656 6.71875 C 741.480469 6.285156 741.625 5.824219 741.761719 5.339844 L 742.039062 4.5625 C 741.386719 5.667969 741.136719 6.074219 740.527344 6.980469 C 740.277344 7.375 740.046875 7.710938 739.855469 7.980469 L 736.734375 12.335938 L 734.71875 11.816406 L 734.09375 6.546875 C 734.042969 6.265625 734.015625 5.898438 733.976562 5.371094 C 733.949219 4.6875 733.910156 4.15625 733.902344 3.808594 C 733.882812 3.492188 733.882812 3.066406 733.882812 2.46875 L 733.601562 3.789062 C 733.292969 5.246094 733.140625 5.878906 732.707031 7.625 L 731.78125 11.160156 L 729.316406 10.785156 L 732.109375 0.00390625 L 735.828125 0.726562 L 736.347656 5.804688 C 736.472656 7.007812 736.5 8.210938 736.445312 9.414062 C 736.75 8.789062 737.097656 8.191406 737.484375 7.605469 C 737.800781 7.105469 738.070312 6.671875 738.339844 6.285156 L 741.230469 2.125 L 744.757812 3.316406 Z M 741.886719 14.089844 " fill-opacity="1" fill-rule="nonzero"/><path fill="#ffffff" d="M 720.867188 35.28125 C 719.527344 36.445312 716.867188 38.96875 714.304688 41.4375 L 711.417969 44.210938 C 709.074219 43.789062 706.695312 43.574219 704.316406 43.574219 C 698.933594 43.574219 694.046875 45.050781 691.824219 47.332031 C 691.023438 48.054688 690.570312 49.085938 690.578125 50.164062 C 690.628906 52.738281 693.59375 54.054688 694.5 54.402344 C 698.796875 56.234375 703.75 55.589844 707.4375 52.726562 C 710 50.789062 712.4375 48.679688 714.710938 46.40625 C 716.40625 46.785156 718.332031 47.304688 720.414062 47.910156 L 722.332031 48.460938 C 719.855469 50.886719 717.292969 53.429688 714.933594 55.519531 L 714.757812 55.675781 C 711.484375 58.566406 709.132812 60.644531 705.722656 61.398438 C 704.171875 61.839844 702.515625 61.722656 701.042969 61.089844 C 700.972656 61.097656 700.90625 61.195312 700.90625 61.195312 C 702.824219 62.949219 705.414062 63.777344 707.996094 63.457031 C 711.070312 63.199219 714.613281 61.28125 718.265625 57.898438 L 723.128906 53.082031 L 726.519531 49.683594 C 726.519531 49.691406 733.457031 51.714844 733.457031 51.714844 C 733.503906 51.726562 733.554688 51.734375 733.59375 51.753906 C 733.503906 51.753906 729.265625 55.925781 729.265625 55.925781 L 725.597656 59.585938 C 723.128906 62.167969 720.453125 64.546875 717.601562 66.703125 C 713.921875 69.296875 710.828125 70.65625 708.074219 70.816406 C 706.273438 70.992188 704.472656 70.636719 702.863281 69.804688 C 702.785156 69.796875 702.699219 69.894531 702.699219 69.894531 C 704.816406 72.070312 707.738281 73.292969 710.78125 73.273438 C 715.230469 73.160156 719.171875 71.019531 725.25 65.394531 C 728.042969 62.804688 730.835938 59.972656 733.292969 57.429688 L 737.839844 52.8125 C 740.683594 53.46875 743.589844 53.757812 746.5 53.691406 C 750.816406 53.613281 754.449219 51.542969 754.496094 49.183594 C 754.390625 47.785156 753.542969 46.542969 752.28125 45.945312 C 750.691406 44.953125 748.859375 44.421875 746.980469 44.433594 C 743.246094 44.625 739.699219 46.128906 736.953125 48.671875 L 734.660156 50.683594 C 734.691406 50.664062 733.824219 50.453125 733.824219 50.453125 L 727.484375 48.691406 C 729.355469 46.9375 730.941406 45.425781 732.386719 44.171875 C 735.019531 41.714844 738.351562 40.136719 741.925781 39.675781 C 743.554688 39.566406 746.433594 39.710938 747.597656 40.550781 C 747.648438 40.53125 747.722656 40.414062 747.722656 40.414062 C 745.539062 38.394531 742.636719 37.3125 739.660156 37.410156 C 737.464844 37.410156 733.957031 38.105469 729.632812 41.4375 C 727.378906 43.324219 725.25 45.339844 723.246094 47.488281 C 723.246094 47.457031 720.046875 46.496094 720.046875 46.496094 L 719.265625 46.253906 L 715.886719 45.230469 C 715.964844 45.230469 717.832031 43.421875 717.832031 43.421875 C 720.085938 41.207031 722.246094 39.085938 723.890625 37.691406 C 729.929688 32.582031 733.792969 31.910156 736.445312 31.878906 C 738.863281 31.746094 741.269531 32.371094 743.3125 33.671875 C 743.359375 33.671875 743.445312 33.566406 743.445312 33.566406 C 740.828125 30.800781 737.148438 29.308594 733.339844 29.460938 C 729.605469 29.394531 725.171875 31.464844 720.867188 35.28125 Z M 696.9375 53.488281 C 695.011719 53.351562 694.046875 52.554688 694.046875 51.042969 C 694.046875 50.839844 694.183594 46.011719 705.195312 45.464844 C 706.800781 45.367188 708.410156 45.414062 710.011719 45.597656 C 709.914062 45.617188 708.757812 46.675781 708.757812 46.675781 L 708.082031 47.3125 C 705.40625 49.730469 700.925781 53.738281 696.9375 53.488281 Z M 741.625 49.578125 C 744.824219 47.4375 747.453125 46.292969 749.09375 46.351562 C 750.066406 46.386719 751.230469 46.6875 751.230469 47.890625 C 751.230469 49.09375 750.054688 50.15625 747.761719 50.972656 C 744.988281 51.746094 742.089844 51.917969 739.246094 51.484375 C 740.007812 50.808594 740.796875 50.164062 741.625 49.578125 Z M 741.625 49.578125 " fill-opacity="1" fill-rule="nonzero"/><g clip-path="url(#49491166d0)"><g transform="matrix(1, 0, 0, 1, 429, 129)"><g clip-path="url(#c09591c8d3)"><g fill="#ffffff" fill-opacity="1"><g transform="translate(0.619177, 50.027861)"><g><path d="M 37.078125 -37.8125 L 21.796875 0.265625 L 17 0.265625 L 1.9375 -37.078125 L 7.25 -38.171875 L 19.453125 -6.890625 L 31.453125 -37.8125 Z M 37.078125 -37.8125 "/></g></g></g><g fill="#ffffff" fill-opacity="1"><g transform="translate(53.969512, 50.027861)"><g><path d="M 10.53125 0 L 5.3125 0 L 5.3125 -37.8125 L 10.53125 -37.8125 Z M 10.53125 0 "/></g></g></g><g fill="#ffffff" fill-opacity="1"><g transform="translate(84.218497, 50.027861)"><g><path d="M 31.71875 -0.78125 L 26.234375 0.359375 L 14.296875 -15.90625 L 10.21875 -15.90625 L 10.21875 0 L 5 0 L 5 -37.8125 L 15.59375 -37.8125 C 19.664062 -37.8125 22.859375 -36.875 25.171875 -35 C 27.484375 -33.125 28.640625 -30.460938 28.640625 -27.015625 C 28.640625 -24.265625 27.863281 -22.007812 26.3125 -20.25 C 24.757812 -18.5 22.644531 -17.273438 19.96875 -16.578125 Z M 23.421875 -26.75 C 23.421875 -28.800781 22.738281 -30.382812 21.375 -31.5 C 20.019531 -32.613281 18.023438 -33.171875 15.390625 -33.171875 L 10.21875 -33.171875 L 10.21875 -20.28125 L 14.8125 -20.28125 C 17.488281 -20.28125 19.59375 -20.835938 21.125 -21.953125 C 22.65625 -23.066406 23.421875 -24.664062 23.421875 -26.75 Z M 23.421875 -26.75 "/></g></g></g><g fill="#ffffff" fill-opacity="1"><g transform="translate(130.424454, 50.027861)"><g><path d="M 32.703125 -33.015625 L 19.875 -33.015625 L 19.875 0 L 14.609375 0 L 14.609375 -33.015625 L 2.09375 -33.015625 L 2.09375 -37.8125 L 31.96875 -37.8125 Z M 32.703125 -33.015625 "/></g></g></g><g fill="#ffffff" fill-opacity="1"><g transform="translate(179.237953, 50.027861)"><g><path d="M 35.046875 -14.546875 C 35.046875 -9.785156 33.679688 -6.046875 30.953125 -3.328125 C 28.222656 -0.617188 24.476562 0.734375 19.71875 0.734375 C 14.988281 0.734375 11.273438 -0.613281 8.578125 -3.3125 C 5.878906 -6.007812 4.53125 -9.671875 4.53125 -14.296875 L 4.53125 -37.8125 L 9.8125 -37.8125 L 9.8125 -14.96875 C 9.8125 -11.5625 10.632812 -8.890625 12.28125 -6.953125 C 13.9375 -5.023438 16.414062 -4.0625 19.71875 -4.0625 C 23.050781 -4.0625 25.566406 -4.992188 27.265625 -6.859375 C 28.972656 -8.722656 29.828125 -11.375 29.828125 -14.8125 L 29.828125 -37.8125 L 35.046875 -37.8125 Z M 35.046875 -14.546875 "/></g></g></g><g fill="#ffffff" fill-opacity="1"><g transform="translate(232.483871, 50.027861)"><g><path d="M 1.9375 0 L 17.3125 -37.96875 L 22.53125 -37.96875 L 37.703125 -0.734375 L 32.546875 0.359375 L 27.953125 -11.265625 L 11.734375 -11.265625 L 7.359375 0 Z M 19.8125 -31.8125 L 13.515625 -15.90625 L 26.125 -15.90625 Z M 19.8125 -31.8125 "/></g></g></g><g fill="#ffffff" fill-opacity="1"><g transform="translate(286.459972, 50.027861)"><g><path d="M 25.1875 0 L 5 0 L 5 -37.8125 L 10.21875 -37.8125 L 10.21875 -4.90625 L 24.46875 -4.90625 Z M 25.1875 0 "/></g></g></g></g></g></g><g clip-path="url(#49716b31bd)"><path fill="#ffffff" d="M 495.769531 168.324219 C 495.769531 171.714844 496.617188 174.425781 498.371094 176.515625 C 500.121094 178.609375 502.839844 179.628906 506.515625 179.628906 C 510.191406 179.628906 512.90625 178.664062 514.714844 176.742188 C 516.523438 174.820312 517.425781 172.054688 517.425781 168.550781 L 517.425781 144.867188 L 523.25 144.867188 L 523.25 168.777344 C 523.25 171.207031 522.855469 173.414062 522.121094 175.390625 L 521.527344 176.699219 C 520.824219 178.058594 519.941406 179.230469 518.839844 180.246094 C 517.371094 181.605469 515.617188 182.621094 513.582031 183.355469 C 511.546875 184.089844 509.171875 184.429688 506.570312 184.429688 C 503.96875 184.429688 501.648438 184.089844 499.554688 183.355469 C 497.523438 182.621094 495.769531 181.605469 494.355469 180.246094 C 492.941406 178.890625 491.867188 177.253906 491.074219 175.390625 C 490.339844 173.46875 489.949219 171.371094 489.949219 169 L 489.949219 144.8125 L 495.769531 144.8125 Z M 559.667969 144.472656 C 561.757812 144.472656 563.625 144.699219 565.207031 145.09375 C 566.789062 145.492188 568.203125 146.058594 569.449219 146.679688 L 568.542969 151.988281 C 567.355469 151.140625 566 150.464844 564.472656 149.957031 C 562.945312 149.394531 561.304688 149.164062 559.550781 149.164062 C 557.0625 149.164062 555.253906 149.675781 554.125 150.691406 C 552.996094 151.707031 552.429688 152.949219 552.429688 154.363281 C 552.429688 155.097656 552.539062 155.777344 552.765625 156.34375 C 552.992188 156.910156 553.445312 157.472656 554.070312 157.984375 C 554.691406 158.492188 555.539062 159.054688 556.554688 159.5625 C 557.628906 160.125 558.929688 160.695312 560.570312 161.371094 C 562.660156 162.21875 564.417969 163.070312 565.828125 163.859375 C 567.242188 164.652344 568.429688 165.496094 569.277344 166.398438 C 570.125 167.304688 570.804688 168.324219 571.144531 169.394531 C 571.539062 170.527344 571.710938 171.769531 571.710938 173.238281 L 571.765625 173.183594 C 571.765625 174.875 571.425781 176.402344 570.75 177.703125 C 570.074219 179.058594 569.164062 180.191406 567.976562 181.152344 C 566.789062 182.113281 565.375 182.847656 563.683594 183.355469 C 561.988281 183.863281 560.171875 184.09375 558.195312 184.09375 C 555.820312 184.09375 553.613281 183.867188 551.632812 183.414062 C 549.597656 182.964844 547.789062 182.339844 546.207031 181.605469 L 547.054688 176.179688 C 548.527344 177.027344 550.226562 177.820312 552.148438 178.496094 C 554.070312 179.175781 556.160156 179.511719 558.308594 179.511719 C 560.457031 179.511719 562.378906 179.007812 563.792969 177.992188 C 565.207031 176.972656 565.941406 175.5 565.941406 173.582031 C 565.941406 172.675781 565.828125 171.882812 565.546875 171.261719 C 565.320312 170.585938 564.867188 170.015625 564.246094 169.453125 C 563.625 168.886719 562.773438 168.320312 561.753906 167.8125 C 560.679688 167.25 559.378906 166.683594 557.742188 166.007812 C 555.707031 165.160156 554.011719 164.367188 552.601562 163.632812 C 551.1875 162.898438 550.054688 162.046875 549.148438 161.199219 C 548.246094 160.351562 547.625 159.390625 547.226562 158.375 C 546.832031 157.300781 546.660156 156.117188 546.660156 154.703125 C 546.660156 153.121094 546.941406 151.707031 547.5625 150.464844 C 548.1875 149.222656 549.089844 148.144531 550.21875 147.242188 C 551.351562 146.335938 552.765625 145.65625 554.351562 145.207031 C 555.933594 144.695312 557.691406 144.472656 559.667969 144.472656 Z M 742.757812 144.472656 C 744.847656 144.472656 746.714844 144.699219 748.296875 145.09375 C 749.882812 145.492188 751.296875 146.058594 752.539062 146.679688 L 751.632812 151.988281 C 750.445312 151.140625 749.089844 150.464844 747.5625 149.957031 C 746.035156 149.394531 744.398438 149.164062 742.644531 149.164062 C 740.15625 149.164062 738.347656 149.675781 737.214844 150.691406 C 736.085938 151.707031 735.519531 152.949219 735.519531 154.363281 C 735.519531 155.097656 735.632812 155.777344 735.859375 156.34375 C 736.085938 156.910156 736.535156 157.472656 737.160156 157.984375 C 737.78125 158.492188 738.628906 159.054688 739.648438 159.5625 C 740.722656 160.125 742.023438 160.695312 743.660156 161.371094 C 745.753906 162.21875 747.507812 163.070312 748.921875 163.859375 C 750.332031 164.652344 751.519531 165.496094 752.371094 166.398438 C 753.21875 167.304688 753.894531 168.324219 754.234375 169.394531 C 754.632812 170.527344 754.800781 171.769531 754.800781 173.238281 L 754.855469 173.183594 C 754.855469 174.878906 754.519531 176.402344 753.839844 177.703125 C 753.160156 179.058594 752.257812 180.191406 751.070312 181.152344 C 749.882812 182.113281 748.46875 182.847656 746.769531 183.355469 C 745.074219 183.863281 743.265625 184.09375 741.285156 184.09375 C 738.910156 184.09375 736.707031 183.867188 734.726562 183.414062 C 732.699219 182.964844 730.882812 182.339844 729.304688 181.605469 L 730.148438 176.179688 C 731.617188 177.027344 733.3125 177.820312 735.238281 178.496094 C 737.160156 179.175781 739.25 179.511719 741.398438 179.511719 C 743.546875 179.511719 745.472656 179.007812 746.882812 177.992188 C 748.296875 176.972656 749.03125 175.5 749.03125 173.582031 C 749.03125 172.675781 748.921875 171.882812 748.636719 171.261719 C 748.410156 170.582031 747.957031 170.015625 747.335938 169.453125 C 746.714844 168.886719 745.867188 168.320312 744.855469 167.8125 C 743.78125 167.246094 742.472656 166.6875 740.835938 166.007812 C 738.796875 165.160156 737.101562 164.367188 735.6875 163.632812 C 734.273438 162.84375 733.144531 162.046875 732.238281 161.199219 C 731.335938 160.351562 730.710938 159.390625 730.316406 158.375 C 729.921875 157.300781 729.75 156.117188 729.75 154.703125 C 729.75 153.121094 730.035156 151.707031 730.65625 150.464844 C 731.277344 149.222656 732.183594 148.144531 733.3125 147.242188 C 734.445312 146.339844 735.859375 145.65625 737.441406 145.207031 C 739.023438 144.695312 740.777344 144.472656 742.757812 144.472656 Z M 788.898438 144.472656 C 790.988281 144.472656 792.855469 144.699219 794.4375 145.09375 C 796.023438 145.492188 797.433594 146.058594 798.679688 146.679688 L 797.773438 151.988281 C 796.585938 151.140625 795.230469 150.464844 793.703125 149.957031 C 792.175781 149.394531 790.535156 149.164062 788.785156 149.164062 C 786.296875 149.164062 784.488281 149.675781 783.355469 150.691406 C 782.226562 151.707031 781.660156 152.949219 781.660156 154.363281 C 781.660156 155.097656 781.773438 155.777344 782 156.34375 C 782.226562 156.910156 782.675781 157.472656 783.300781 157.984375 C 783.921875 158.492188 784.769531 159.054688 785.789062 159.5625 C 786.863281 160.125 788.160156 160.695312 789.800781 161.371094 C 791.894531 162.21875 793.648438 163.070312 795.058594 163.859375 C 796.472656 164.652344 797.660156 165.496094 798.507812 166.398438 C 799.359375 167.304688 800.035156 168.324219 800.375 169.394531 C 800.773438 170.527344 800.941406 171.769531 800.941406 173.238281 L 800.996094 173.183594 C 800.996094 174.875 800.660156 176.402344 799.984375 177.703125 C 799.308594 179.058594 798.398438 180.191406 797.210938 181.152344 C 796.023438 182.113281 794.609375 182.847656 792.917969 183.355469 C 791.222656 183.863281 789.40625 184.09375 787.425781 184.09375 C 785.050781 184.09375 782.847656 183.867188 780.867188 183.414062 C 778.832031 182.964844 777.023438 182.339844 775.441406 181.605469 L 776.289062 176.179688 C 777.757812 177.027344 779.460938 177.820312 781.375 178.496094 C 783.300781 179.175781 785.390625 179.511719 787.539062 179.511719 C 789.6875 179.511719 791.609375 179.007812 793.023438 177.992188 C 794.4375 176.972656 795.171875 175.5 795.171875 173.582031 C 795.171875 172.675781 795.058594 171.882812 794.777344 171.261719 C 794.550781 170.585938 794.097656 170.015625 793.476562 169.453125 C 792.855469 168.886719 792.007812 168.320312 790.988281 167.8125 C 789.914062 167.246094 788.613281 166.683594 786.972656 166.007812 C 784.9375 165.160156 783.242188 164.371094 781.828125 163.632812 C 780.414062 162.84375 779.285156 162.046875 778.378906 161.199219 C 777.476562 160.351562 776.851562 159.390625 776.457031 158.375 C 776.0625 157.300781 775.890625 156.117188 775.890625 154.703125 C 775.890625 153.121094 776.175781 151.707031 776.796875 150.464844 C 777.417969 149.222656 778.324219 148.144531 779.453125 147.242188 C 780.585938 146.335938 782 145.65625 783.582031 145.207031 C 785.164062 144.699219 786.917969 144.472656 788.898438 144.472656 Z M 708.207031 149.617188 L 690.960938 149.617188 L 690.960938 160.917969 L 704.363281 160.917969 L 705.210938 165.78125 L 690.90625 165.78125 L 690.90625 178.890625 L 708.773438 178.890625 L 708.773438 183.753906 L 685.082031 183.753906 L 685.136719 183.695312 L 685.136719 144.757812 L 708.207031 144.757812 Z M 452.0625 144.757812 C 456.753906 144.757812 460.257812 145.660156 462.519531 147.523438 C 464.78125 149.386719 465.917969 151.820312 465.917969 154.816406 C 465.917969 156.792969 465.351562 158.488281 464.277344 159.789062 C 463.203125 161.085938 461.671875 162.164062 459.75 162.898438 C 462.125 163.523438 464.105469 164.59375 465.574219 166.117188 C 467.042969 167.644531 467.78125 169.679688 467.785156 172.277344 C 467.785156 176.175781 466.367188 179.0625 463.597656 180.925781 C 460.828125 182.792969 456.921875 183.695312 451.945312 183.695312 L 441.714844 183.695312 L 441.714844 144.757812 Z M 601 183.695312 L 595.175781 183.695312 L 595.175781 144.757812 L 601 144.757812 Z M 654.492188 173.917969 L 654.492188 144.757812 L 659.917969 144.757812 L 659.917969 183.695312 L 655.507812 183.695312 L 631.984375 153.402344 L 631.984375 183.695312 L 626.558594 183.695312 L 626.558594 144.757812 L 631.765625 144.757812 Z M 447.425781 179.230469 L 452.398438 179.230469 C 455.507812 179.230469 457.886719 178.667969 459.582031 177.539062 C 461.28125 176.40625 462.070312 174.710938 462.070312 172.449219 L 462.070312 172.394531 C 462.070312 170.132812 461.222656 168.4375 459.582031 167.25 C 457.886719 166.0625 455.457031 165.5 452.234375 165.5 L 447.425781 165.5 Z M 447.425781 161.144531 L 451.492188 161.144531 C 454.320312 161.144531 456.527344 160.636719 458 159.5625 C 459.46875 158.488281 460.203125 157.015625 460.203125 155.097656 L 460.203125 155.039062 C 460.203125 153.234375 459.582031 151.820312 458.28125 150.800781 C 456.980469 149.785156 454.886719 149.277344 451.945312 149.277344 L 447.425781 149.277344 Z M 122.800781 101.800781 L -0.238281 101.800781 L 61.28125 75.804688 Z M 127.777344 83.777344 C 129.980469 83.777344 131.789062 85.582031 131.789062 87.84375 C 131.789062 90.105469 129.980469 91.910156 127.777344 91.910156 C 125.570312 91.910156 123.707031 90.101562 123.707031 87.84375 C 123.707031 85.582031 125.515625 83.777344 127.777344 83.777344 Z M 118.277344 91.289062 L 61.28125 63.878906 L 4.285156 91.289062 L 61.28125 3.574219 Z M 198.457031 13.011719 C 226.898438 13.011719 243.863281 27.652344 243.863281 52.121094 C 243.863281 76.59375 226.898438 91.289062 198.457031 91.289062 L 170.808594 91.289062 L 170.808594 13.011719 Z M 340.839844 26.632812 L 303.234375 26.632812 L 303.234375 43.816406 L 336.484375 43.816406 L 336.484375 57.375 L 303.234375 57.375 L 303.234375 77.726562 L 342.082031 77.726562 L 342.082031 91.289062 L 285.765625 91.289062 L 285.765625 13.066406 L 340.839844 13.066406 Z M 407.957031 77.726562 L 441.714844 77.726562 L 441.714844 91.289062 L 390.425781 91.289062 L 390.425781 13.066406 L 407.957031 13.066406 Z M 536.144531 26.632812 L 509.792969 26.632812 L 509.792969 91.289062 L 492.207031 91.289062 L 492.207031 26.632812 L 465.855469 26.632812 L 465.855469 13.066406 L 536.144531 13.066406 Z M 637.695312 91.289062 L 619.433594 91.289062 L 611.742188 71.675781 L 579.910156 71.675781 L 572.273438 91.289062 L 555.140625 91.289062 L 587.882812 12.675781 L 605.523438 12.675781 Z M 127.777344 84.339844 C 125.855469 84.339844 124.332031 85.867188 124.332031 87.789062 C 124.332031 89.707031 125.855469 91.230469 127.777344 91.234375 C 129.699219 91.234375 131.226562 89.707031 131.226562 87.789062 C 131.226562 85.867188 129.699219 84.339844 127.777344 84.339844 Z M 128.117188 85.414062 C 129.191406 85.414062 129.585938 85.863281 129.585938 86.710938 C 129.585938 87.558594 129.023438 87.957031 128.398438 88.070312 L 129.8125 90.101562 L 129.132812 90.101562 L 127.722656 88.070312 L 126.875 88.070312 L 126.875 90.101562 L 126.308594 90.101562 L 126.308594 85.414062 Z M 126.875 87.5625 L 127.609375 87.5625 C 128.230469 87.5625 128.964844 87.558594 128.964844 86.765625 C 128.960938 86.148438 128.398438 85.976562 127.945312 85.976562 L 126.875 85.976562 Z M 188.28125 77.726562 L 198.457031 77.726562 C 216.890625 77.726562 226.109375 68.625 226.109375 52.179688 C 226.109375 35.734375 216.890625 26.632812 198.457031 26.632812 L 188.28125 26.632812 Z M 584.941406 58.625 L 606.824219 58.625 L 595.910156 30.816406 Z M 584.941406 58.625 " fill-opacity="1" fill-rule="nonzero"/></g></svg>